PathFileType	4	(X/Y/Z)	Patient5_TMGait_0pt45_1_left_14.trc.trc
DataRate	CameraRate	NumFrames	NumMarkers	Units	OrigDataRate	OrigDataStartFrame	OrigNumFrames
62.500000000000	62.500000000000	4	32	mm	62.500000000000	18	       141
Frame#	Time	R.ASIS			L.ASIS			Chest			R.Shoulder			Neck			L.Shoulder			L.Elbow			L.Wrist			R.Elbow			R.Wrist			L.Thigh.Superior			L.Thigh.Lateral			L.Thigh.Inferior			L.Patella			L.Shank.Superior			L.Shank.Lateral			L.Shank.Inferior			L.Heel			L.Midfoot.Lateral			L.Midfoot.Superior			L.Toe			R.Thigh.Superior			R.Thigh.Lateral			R.Thigh.Inferior			R.Patella			R.Shank.Superior			R.Shank.Lateral			R.Shank.Inferior			R.Heel			R.Midfoot.Lateral			R.Midfoot.Superior			R.Toe			
		X1	Y1	Z1	X2	Y2	Z2	X3	Y3	Z3	X4	Y4	Z4	X5	Y5	Z5	X6	Y6	Z6	X7	Y7	Z7	X8	Y8	Z8	X9	Y9	Z9	X10	Y10	Z10	X11	Y11	Z11	X12	Y12	Z12	X13	Y13	Z13	X14	Y14	Z14	X15	Y15	Z15	X16	Y16	Z16	X17	Y17	Z17	X18	Y18	Z18	X19	Y19	Z19	X20	Y20	Z20	X21	Y21	Z21	X22	Y22	Z22	X23	Y23	Z23	X24	Y24	Z24	X25	Y25	Z25	X26	Y26	Z26	X27	Y27	Z27	X28	Y28	Z28	X29	Y29	Z29	X30	Y30	Z30	X31	Y31	Z31	X32	Y32	Z32	

18	22.232000000000	972.998480661260	955.653426039284	607.991260573910	957.881179319319	955.471571868831	363.871312348768	1083.598571021162	1412.753683418871	499.359887866467	1001.117260969638	1474.375345704926	674.977735550269	961.568384959720	1543.664610514687	496.383361136549	1012.591983026685	1491.599633359918	310.015111403801	907.389317715917	1184.128322121711	178.841955937117	995.077576138713	907.334261855205	194.056172625504	926.119590790824	1163.777659598045	831.131898469729	1135.285972398081	981.165687224845	746.270010820376	1034.206675648733	788.855295491777	341.781519463005	1003.431679782281	702.686603907658	288.140085764954	1095.934431187761	677.802092137883	351.417768852902	1150.263527692724	549.865492334539	338.464110355713	1099.157791295695	437.837348815268	357.645936788418	1021.294765650529	377.707223013983	283.777570265503	1056.630782901624	318.792917173196	365.547387739933	907.735256825784	95.801918067067	366.248151825077	989.635948883916	71.445939964371	297.808361031140	1093.094734264124	126.806474721178	333.795378596172	1194.999432007361	81.789945215189	326.474234922647	942.564628689874	720.941629109173	614.144125428837	840.829198910544	659.288413091423	664.284533105651	907.597569781933	595.071942756243	586.063300571844	890.272017866161	502.575856761687	609.951909802062	839.711614618023	416.823544781334	569.439863836832	764.961183264856	352.265268870982	648.121652345003	814.956516820681	280.095992571785	564.376832066743	681.059055563389	54.392163320069	520.920312905365	757.120765054991	25.306876668169	596.214469917658	863.857011200414	87.022315610887	575.216478855961	967.432026272111	44.720089963395	578.327185103201	
19	22.248000000000	973.505072751864	954.340008367484	607.882239128855	960.855128710595	953.884507169279	363.916949503817	1086.846860588610	1411.132125579167	499.027691696943	1003.864354020095	1473.561344730673	673.981199631246	964.994426170313	1542.257640138648	495.188484197780	1017.054164084804	1489.643619379570	309.144500209745	912.460809977725	1182.067658039019	177.860214358935	999.407193024503	905.045314185690	193.928617183036	927.808686685179	1163.198741008131	830.146216905424	1137.773356222744	981.281855481542	745.830375650225	1034.204274630425	784.582155129691	341.660644285499	1002.415606792319	698.430069228199	288.670278487615	1094.304736090491	673.101933165625	352.646646296837	1149.147489410902	549.603796112130	340.629531085249	1106.331348531541	436.913154227666	360.026557333492	1033.075915782107	370.455600886141	286.546750500502	1074.972193411322	314.277547683226	367.692284789442	946.485268614520	79.133657310386	369.794731934015	1029.289217657696	61.408358748566	300.202900270326	1128.480402058705	125.000597797905	334.663682982266	1233.821161647475	88.410353618047	325.857216148907	940.560044303353	719.680701603935	613.734781774769	837.861535690714	659.005789588417	663.435395177387	904.255740511463	594.114100148863	585.802285884508	886.143138288681	501.707514947306	609.706044933964	834.825575138126	416.371807987846	569.022632179297	759.187081283544	352.642402646614	647.342078335140	809.214840270317	279.968867571793	564.238740776457	673.825383580660	54.412463328861	520.863011500049	749.856665814460	25.354429553989	596.162775201874	856.561871745230	87.019351515294	575.291621850316	960.089691278673	44.686804224654	578.323931427364	
20	22.264000000000	974.475374880998	952.999952111374	607.645326904893	964.656699287327	951.881815874371	364.017328279055	1090.026019933783	1409.403140275326	498.518241793087	1006.297975938312	1472.510202935361	672.628096971973	968.299237371146	1540.632220773138	493.620505713710	1021.645226227268	1487.550955426376	307.988010438609	917.534745453491	1179.820317624322	176.655277205349	1004.131221128318	902.712021383814	193.541204080185	929.542668560293	1162.301292640149	828.863975178621	1140.157586880127	980.795941580312	745.286663335974	1034.685759164165	779.274984433501	341.220902230135	1001.239507106407	693.094919842225	289.319980609727	1092.658439730362	667.206703602867	353.820175418056	1147.334720665218	548.125167120044	343.344567592893	1112.230322217417	435.322970846285	363.016835745042	1043.836957734416	363.329595650293	289.718416263823	1091.455016019089	310.134156783794	370.454789412380	982.382568401900	65.666443884756	373.148489852379	1066.035344493245	53.396452366959	303.189122930725	1160.728042485640	124.078927639375	336.930462249092	1268.649114313360	95.122153433784	327.649152904602	939.153337391983	718.400429446413	613.343016851049	835.380610964162	658.712831291275	662.443918915667	901.554335948858	593.107972309666	585.610052184560	882.558092047508	500.739447799026	609.494403071990	830.442286551396	415.795130193398	568.581597076919	753.736093546435	353.036041718083	646.438827716904	803.777942133661	279.739328762745	564.051090238276	666.594689872409	54.410463788727	520.768227937161	742.613791175939	25.379482436886	596.088818096793	849.276286062261	87.051885561782	575.375909922612	952.769643624539	44.644230623344	578.311591074852	
21	22.280000000000	976.030574431170	951.651397493120	607.268481268625	969.300594983849	949.598628730192	364.122508014957	1093.095772469979	1407.666650064648	497.839040391802	1008.294065104342	1471.320275677095	670.897975892566	971.450730183227	1538.870105024345	491.643172478592	1026.379174082606	1485.366902007956	306.528159911592	922.718028753017	1177.425640028662	175.180538853543	1009.242991565065	900.348378591409	192.952198789492	931.327622597266	1161.137157706763	827.249396891738	1142.446473311636	979.734249109365	744.658894050278	1035.982284883796	773.336836945926	340.591761354178	1000.374229713676	687.064686401668	290.174344214620	1091.437145780318	660.577882828337	355.107304959203	1145.302007823911	545.626535177658	346.775719563396	1116.936439217698	433.066646182839	366.677294864464	1053.388053218618	356.558458898437	293.284735246589	1105.519411633603	306.279528439732	373.870345364802	1013.547653096223	55.585315707543	376.189090623238	1098.148972080954	47.244661904141	306.688549077629	1188.570210099612	123.440514816464	340.678222577153	1298.284027557303	100.748730336721	331.981873016188	938.473043388607	717.134187768557	612.921056679483	833.566594945821	658.421345621510	661.315532879810	899.649496317007	592.071703241500	585.444406247419	879.653467228709	499.686591535625	609.280913999986	826.706966704902	415.121638996964	568.107141858831	748.733704999907	353.468489329055	645.421319613294	798.710230242996	279.419261199532	563.801666967186	659.380119443043	54.426391829520	520.649050691320	735.400983080651	25.391258281580	595.993836402424	842.020277752118	87.117261386494	575.466505083375	945.484424795053	44.588907174222	578.300009249293	
